# xmcd
#
# Track frame offsets: 
#        150
#        12345
#        32322
#        51804
#        63077
#        80233
#        90281
#        106115
#        118796
#        131611
#        146387
#        158132
#        175854
#
# Disc length: 2560 seconds
#
# Revision: 2
# Processed by: cddbd v1.5.2PL0 Copyright (c) Steve Scherf et al.
# Submitted via: ExactAudioCopyFreeDBPlugin 1.0
#
DISCID=9a09fe0d
DTITLE=Linda Ronstadt - Blue Bayou
DYEAR=1977
DGENRE=Country
TTITLE0=Different Drum
TTITLE1=Long Long Time
TTITLE2=Love Has No Pride
TTITLE3=Silver Threads And Golden Needles
TTITLE4=You're No Good
TTITLE5=When Will I Be Loved
TTITLE6=It Doesn't Matter Anymore
TTITLE7=Heat Wave
TTITLE8=Love Is A Rose
TTITLE9=Tracks Of My Tears
TTITLE10=That'll Be The Day
TTITLE11=Blue Bayou
TTITLE12=Desperado
EXTD=
EXTT0=
EXTT1=
EXTT2=
EXTT3=
EXTT4=
EXTT5=
EXTT6=
EXTT7=
EXTT8=
EXTT9=
EXTT10=
EXTT11=
EXTT12=
PLAYORDER=
